<?xml version="1.0" encoding="utf-8"?>
<svg version="1.1" id="Layer_1" xmlns="http://www.w3.org/2000/svg" xmlns:xlink="http://www.w3.org/1999/xlink" x="0px" y="0px"
	 width="200px" height="30px" viewBox="0 0 200 30" enable-background="new 0 0 200 30" xml:space="preserve">
<g>
	<path fill-rule="evenodd" clip-rule="evenodd" fill="#FFFFFF" d="M186.702,15.06c0,3.855,2.54,6.435,6.134,6.435
		c3.592,0,6.164-2.58,6.164-6.376c0-3.795-2.543-6.406-6.164-6.406C189.214,8.712,186.702,11.323,186.702,15.06 M196.547,15.118
		c0,3.826-1.287,5.754-3.652,5.754c-2.6,0-3.769-2.046-3.769-6.109c0-3.648,1.139-5.428,3.769-5.428
		C195.615,9.335,196.547,11.292,196.547,15.118 M179.043,9.335c1.926,0,2.6,1.305,2.6,3.827c0,2.521-0.906,3.766-2.716,3.766
		c-1.783,0-2.514-1.186-2.514-3.766C176.413,10.61,177.056,9.335,179.043,9.335 M182.723,10.136
		c-1.022-0.949-2.248-1.423-3.71-1.423c-2.893,0-4.761,1.839-4.761,4.419c0,1.78,0.787,2.995,2.453,4.003
		c-1.694,0.357-2.569,1.276-2.569,2.493c0,2.105,2.364,2.165,5.695,2.46c2.63,0.238,3.943,0.949,3.943,2.492
		c0,1.839-1.752,3.114-4.265,3.114c-3.01,0-4.762-1.246-4.762-2.965c0-0.713,0.291-1.307,0.906-1.87
		c-0.089-0.356-0.293-0.474-0.644-0.474c-0.759,0-1.488,0.919-1.488,2.166c0,2.194,2.103,3.767,6.018,3.767
		c3.737,0,5.783-1.811,5.783-4.451c0-2.521-1.752-3.648-5.288-3.973c-3.007-0.267-4.499-0.09-4.499-1.217
		c0-0.742,0.964-1.156,2.835-1.156h0.466c3.068,0,4.968-1.69,4.968-4.39c0-0.919-0.205-1.69-0.702-2.58
		c0.672-0.535,1.168-0.771,1.433-0.771c0.438,0,0.438,1.216,1.313,1.216c0.556,0,0.904-0.386,0.904-1.038
		c0-0.653-0.612-1.246-1.487-1.246C184.476,8.712,183.774,9.247,182.723,10.136 M170.412,8.386c-1.344,0.356-2.717,0.593-4.12,0.741
		v0.535h0.439c1.228,0,1.43,0.385,1.43,2.017v6.673v0.919c0,0.743-0.583,1.245-1.635,1.245c-0.146,0-0.321,0-0.495-0.028v0.592
		h6.279v-0.592h-0.292c-1.491,0-1.606-0.653-1.606-2.137V8.386z M169.185,2.193c-0.82,0-1.46,0.653-1.46,1.485
		c0,0.799,0.67,1.481,1.46,1.481c0.789,0,1.461-0.653,1.461-1.481C170.646,2.846,170.003,2.193,169.185,2.193 M147.045,1.386v0.683
		h0.086c1.986,0,2.336,1.009,3.214,3.056l6.923,16.371h1.023l5.941-16.342c0.7-1.779,1.155-2.789,2.591-3.084V1.386h-4.875v0.683
		c1.156,0.076,1.671,0.742,1.671,1.69c0,0.415-0.117,0.949-0.351,1.542l-4.511,12.724l-5.843-13.792
		c-0.205-0.505-0.292-0.89-0.292-1.126c0-0.683,0.526-1.039,1.519-1.039h0.994V1.386H147.045z M152.827,21.081V21.02
		c0-2.728-1.897-4.419-4.585-4.419c-3.358,0-5.756,2.641-5.756,6.555c0,3.737,2.308,6.168,5.784,6.168
		c2.659,0,4.557-1.394,4.85-3.409h-0.672c-0.409,1.601-1.84,2.639-3.768,2.639c-2.804,0-3.769-1.751-3.769-5.309
		c0-0.683,0.031-1.394,0.058-2.165H152.827z M150.462,20.488h-5.433c0.233-2.196,1.197-3.264,3.008-3.264
		c1.52,0,2.454,0.861,2.454,2.373C150.491,19.745,150.491,20.042,150.462,20.488 M137.564,11.797v6.466
		c-1.314-1.157-2.367-1.691-3.828-1.691c-3.389,0-5.812,2.552-5.812,6.526c0,3.706,2.249,6.258,5.403,6.258
		c1.635,0,3.009-0.652,4.237-1.958c0,0.622,0.086,1.275,0.261,1.958c1.14-0.177,2.396-0.356,3.769-0.534v-0.533
		c-0.146,0-0.262,0.03-0.378,0.03c-1.11,0-1.49-0.654-1.49-2.226V8.505c-1.315,0.355-2.661,0.592-4.061,0.741v0.504h0.408
		C137.33,9.751,137.564,10.194,137.564,11.797 M137.534,19.212v7.325c-0.993,1.305-2.19,1.958-3.505,1.958
		c-2.134,0-3.653-1.869-3.653-5.309c0-3.797,1.665-5.872,3.828-5.872C135.344,17.314,136.512,17.936,137.534,19.212 M121.695,13.873
		v4.715c-1.49,1.187-2.718,1.781-3.595,1.781c-1.05,0-1.722-0.712-1.722-1.928C116.379,16.305,118.073,15.118,121.695,13.873
		 M123.857,13.101c0-2.668-0.353-4.359-4.354-4.359c-3.242,0-4.938,1.483-4.938,2.67c0,0.594,0.352,0.949,0.876,0.949
		c1.023,0,1.052-1.038,1.229-1.631c0.263-0.89,1.196-1.364,2.481-1.364c1.871,0,2.543,0.771,2.543,2.46v1.364
		c-5.142,1.988-7.684,3.53-7.684,5.844c0,1.512,0.965,2.521,2.57,2.521c1.519,0,3.155-0.742,5.113-2.137
		c0.261,1.395,1.052,2.076,2.395,2.076c1.431,0,2.308-0.918,2.308-2.432v-0.148h-0.407c-0.206,0.949-0.614,1.423-1.258,1.423
		c-0.729,0-0.875-0.503-0.875-1.423V13.101z M108.268,3.938v6.465c-1.313-1.156-2.365-1.69-3.826-1.69
		c-3.389,0-5.814,2.55-5.814,6.525c0,3.707,2.25,6.257,5.405,6.257c1.635,0,3.009-0.651,4.235-1.957
		c0,0.622,0.089,1.275,0.264,1.957c1.139-0.177,2.396-0.355,3.769-0.533v-0.534c-0.146,0-0.264,0.03-0.379,0.03
		c-1.111,0-1.49-0.653-1.49-2.225V0.645c-1.315,0.355-2.659,0.593-4.062,0.741v0.505h0.411
		C108.036,1.891,108.268,2.336,108.268,3.938 M108.239,11.352v7.325c-0.993,1.307-2.191,1.958-3.505,1.958
		c-2.132,0-3.651-1.869-3.651-5.309c0-3.797,1.666-5.872,3.826-5.872C106.048,9.454,107.217,10.076,108.239,11.352 M95.144,8.386
		c-1.345,0.356-2.718,0.593-4.119,0.741v0.535h0.438c1.228,0,1.433,0.385,1.433,2.017v6.673v0.919c0,0.743-0.584,1.245-1.638,1.245
		c-0.146,0-0.32,0-0.495-0.028v0.592h6.28v-0.592H96.75c-1.49,0-1.607-0.653-1.607-2.137V8.386z M93.917,2.193
		c-0.819,0-1.461,0.653-1.461,1.485c0,0.799,0.672,1.481,1.461,1.481s1.46-0.653,1.46-1.481C95.376,2.846,94.734,2.193,93.917,2.193
		 M87.552,8.712c-0.147,0.445-0.322,0.829-0.614,1.158c-0.876-0.801-1.723-1.128-2.833-1.128c-2.16,0-3.476,1.394-3.476,3.203
		c0,1.245,0.701,2.312,2.045,3.115c1.198,0.712,2.571,1.067,3.623,1.958c0.613,0.533,0.905,0.979,0.905,1.69
		c0,1.246-0.847,2.106-2.366,2.106c-1.898,0-3.096-1.097-3.681-3.352H80.54v4.033h0.614c0.118-0.475,0.293-0.889,0.585-1.246
		c1.021,0.921,1.958,1.276,3.213,1.276c2.395,0,3.855-1.483,3.855-3.825c0-1.484-0.875-2.64-2.599-3.53
		c-2.162-1.099-4.061-1.424-4.061-3.055c0-1.008,0.789-1.75,2.074-1.75c1.548,0,2.572,1.037,3.331,3.203h0.613V8.712H87.552z
		 M72.883,8.386c-1.198,0.386-2.483,0.623-3.827,0.741v0.535h0.438c1.227,0,1.431,0.385,1.431,2.017v6.673v0.919
		c0,0.713-0.526,1.245-1.49,1.245c-0.117,0-0.263,0-0.379-0.028v0.592h6.164v-0.592h-0.408c-1.52,0-1.667-0.653-1.667-2.137v-4.834
		c0-1.75,1.549-3.855,2.805-3.855c0.438,0,0.759,0.326,0.878,0.919c0.115,0.593,0.437,0.89,0.991,0.89
		c0.584,0,1.023-0.444,1.023-1.038c0-0.95-0.906-1.721-2.133-1.721c-1.402,0-2.833,1.009-3.593,2.817
		c0.029-0.325,0.058-0.652,0.058-0.978C73.174,9.78,73.059,9.069,72.883,8.386 M67.268,13.22v-0.059c0-2.729-1.899-4.42-4.586-4.42
		c-3.358,0-5.753,2.641-5.753,6.555c0,3.737,2.307,6.169,5.783,6.169c2.658,0,4.557-1.394,4.85-3.411h-0.673
		c-0.409,1.602-1.84,2.641-3.769,2.641c-2.804,0-3.768-1.75-3.768-5.309c0-0.682,0.029-1.394,0.059-2.166H67.268z M64.902,12.627
		h-5.434c0.233-2.194,1.198-3.262,3.009-3.262c1.518,0,2.454,0.859,2.454,2.372C64.932,11.886,64.932,12.183,64.902,12.627
		 M43.373,9.126v0.625c0.992,0.177,1.489,0.948,1.489,1.096c0,0.091,0.176,0.386,0.467,1.039l4.294,9.609h0.731l3.944-8.838
		c0.759-1.75,1.432-2.699,2.337-2.906V9.126h-3.768v0.625c0.964,0.147,1.314,0.443,1.314,1.187c0,0.236-0.116,0.651-0.321,1.157
		l-3.067,6.969l-3.242-7.444c-0.234-0.534-0.352-0.861-0.352-1.008c0-0.652,0.439-0.859,1.403-0.859V9.126H43.373z M41.202,8.386
		c-1.343,0.356-2.718,0.593-4.119,0.741v0.535h0.438c1.228,0,1.431,0.385,1.431,2.017v6.673v0.919c0,0.743-0.584,1.245-1.636,1.245
		c-0.146,0-0.32,0-0.496-0.028v0.592h6.281v-0.592H42.81c-1.491,0-1.607-0.653-1.607-2.137V8.386z M39.976,2.193
		c-0.819,0-1.461,0.653-1.461,1.485c0,0.799,0.672,1.481,1.461,1.481c0.789,0,1.461-0.653,1.461-1.481
		C41.437,2.846,40.793,2.193,39.976,2.193 M25.866,18.352V12.36c0-0.535,1.693-2.699,3.856-2.699c1.664,0,2.103,0.949,2.103,2.787
		v5.903c0,1.483-0.118,2.137-1.578,2.137h-0.292v0.592h5.93v-0.592h-0.292c-1.49,0-1.607-0.653-1.607-2.137v-5.695
		c0-2.61-1.168-3.944-3.505-3.944c-1.724,0-3.389,0.859-4.615,2.492c0-0.208,0.028-0.416,0.028-0.594
		c0-0.801-0.116-1.542-0.292-2.225c-1.228,0.386-2.455,0.623-3.769,0.741v0.535h0.438c1.227,0,1.431,0.385,1.431,2.017v6.673v0.919
		c0,0.713-0.525,1.245-1.489,1.245c-0.117,0-0.264,0-0.38-0.028v0.592h5.93v-0.592h-0.293
		C25.983,20.488,25.866,19.835,25.866,18.352 M1,1.386v0.713c2.804,0,2.98,0.651,2.98,2.812v10.246c0,4.027,2.833,6.337,7.654,6.337
		c5.141,0,7.799-2.459,7.799-7.255V4.911c0-1.658,1.023-2.665,2.776-2.812V1.386h-6.427v0.713c1.986,0,2.834,0.857,2.834,2.812
		v9.328c0,4.175-2.572,6.306-6.515,6.306c-1.841,0-3.33-0.681-4.118-1.51c-0.876-0.946-1.081-2.25-1.081-4.352V4.911
		c0-2.131,0.087-2.812,2.979-2.812V1.386H1z"/>
	<path fill="none" stroke="#FFFFFF" stroke-width="0.5" d="M186.702,15.06c0,3.855,2.54,6.435,6.134,6.435
		c3.592,0,6.164-2.58,6.164-6.376c0-3.795-2.543-6.406-6.164-6.406C189.214,8.712,186.702,11.323,186.702,15.06 M196.547,15.118
		c0,3.826-1.287,5.754-3.652,5.754c-2.6,0-3.769-2.046-3.769-6.109c0-3.648,1.139-5.428,3.769-5.428
		C195.615,9.335,196.547,11.292,196.547,15.118 M179.043,9.335c1.926,0,2.6,1.305,2.6,3.827c0,2.521-0.906,3.766-2.716,3.766
		c-1.783,0-2.514-1.186-2.514-3.766C176.413,10.61,177.056,9.335,179.043,9.335 M182.723,10.136
		c-1.022-0.949-2.248-1.423-3.71-1.423c-2.893,0-4.761,1.839-4.761,4.419c0,1.78,0.787,2.995,2.453,4.003
		c-1.694,0.357-2.569,1.276-2.569,2.493c0,2.105,2.364,2.165,5.695,2.46c2.63,0.238,3.943,0.949,3.943,2.492
		c0,1.839-1.752,3.114-4.265,3.114c-3.01,0-4.762-1.246-4.762-2.965c0-0.713,0.291-1.307,0.906-1.87
		c-0.089-0.356-0.293-0.474-0.644-0.474c-0.759,0-1.488,0.919-1.488,2.166c0,2.194,2.103,3.767,6.018,3.767
		c3.737,0,5.783-1.811,5.783-4.451c0-2.521-1.752-3.648-5.288-3.973c-3.007-0.267-4.499-0.09-4.499-1.217
		c0-0.742,0.964-1.156,2.835-1.156h0.466c3.068,0,4.968-1.69,4.968-4.39c0-0.919-0.205-1.69-0.702-2.58
		c0.672-0.535,1.168-0.771,1.433-0.771c0.438,0,0.438,1.216,1.313,1.216c0.556,0,0.904-0.386,0.904-1.038
		c0-0.653-0.612-1.246-1.487-1.246C184.476,8.712,183.774,9.247,182.723,10.136 M170.412,8.386c-1.344,0.356-2.717,0.593-4.12,0.741
		v0.535h0.439c1.228,0,1.43,0.385,1.43,2.017v6.673v0.919c0,0.743-0.583,1.245-1.635,1.245c-0.146,0-0.321,0-0.495-0.028v0.592
		h6.279v-0.592h-0.292c-1.491,0-1.606-0.653-1.606-2.137V8.386z M169.185,2.193c-0.82,0-1.46,0.653-1.46,1.485
		c0,0.799,0.67,1.481,1.46,1.481c0.789,0,1.461-0.653,1.461-1.481C170.646,2.846,170.003,2.193,169.185,2.193 M147.045,1.386v0.683
		h0.086c1.986,0,2.336,1.009,3.214,3.056l6.923,16.371h1.023l5.941-16.342c0.7-1.779,1.155-2.789,2.591-3.084V1.386h-4.875v0.683
		c1.156,0.076,1.671,0.742,1.671,1.69c0,0.415-0.117,0.949-0.351,1.542l-4.511,12.724l-5.843-13.792
		c-0.205-0.505-0.292-0.89-0.292-1.126c0-0.683,0.526-1.039,1.519-1.039h0.994V1.386H147.045z M152.827,21.081V21.02
		c0-2.728-1.897-4.419-4.585-4.419c-3.358,0-5.756,2.641-5.756,6.555c0,3.737,2.308,6.168,5.784,6.168
		c2.659,0,4.557-1.394,4.85-3.409h-0.672c-0.409,1.601-1.84,2.639-3.768,2.639c-2.804,0-3.769-1.751-3.769-5.309
		c0-0.683,0.031-1.394,0.058-2.165H152.827z M150.462,20.488h-5.433c0.233-2.196,1.197-3.264,3.008-3.264
		c1.52,0,2.454,0.861,2.454,2.373C150.491,19.745,150.491,20.042,150.462,20.488 M137.564,11.797v6.466
		c-1.314-1.157-2.367-1.691-3.828-1.691c-3.389,0-5.812,2.552-5.812,6.526c0,3.706,2.249,6.258,5.403,6.258
		c1.635,0,3.009-0.652,4.237-1.958c0,0.622,0.086,1.275,0.261,1.958c1.14-0.177,2.396-0.356,3.769-0.534v-0.533
		c-0.146,0-0.262,0.03-0.378,0.03c-1.11,0-1.49-0.654-1.49-2.226V8.505c-1.315,0.355-2.661,0.592-4.061,0.741v0.504h0.408
		C137.33,9.751,137.564,10.194,137.564,11.797 M137.534,19.212v7.325c-0.993,1.305-2.19,1.958-3.505,1.958
		c-2.134,0-3.653-1.869-3.653-5.309c0-3.797,1.665-5.872,3.828-5.872C135.344,17.314,136.512,17.936,137.534,19.212 M121.695,13.873
		v4.715c-1.49,1.187-2.718,1.781-3.595,1.781c-1.05,0-1.722-0.712-1.722-1.928C116.379,16.305,118.073,15.118,121.695,13.873
		 M123.857,13.101c0-2.668-0.353-4.359-4.354-4.359c-3.242,0-4.938,1.483-4.938,2.67c0,0.594,0.352,0.949,0.876,0.949
		c1.023,0,1.052-1.038,1.229-1.631c0.263-0.89,1.196-1.364,2.481-1.364c1.871,0,2.543,0.771,2.543,2.46v1.364
		c-5.142,1.988-7.684,3.53-7.684,5.844c0,1.512,0.965,2.521,2.57,2.521c1.519,0,3.155-0.742,5.113-2.137
		c0.261,1.395,1.052,2.076,2.395,2.076c1.431,0,2.308-0.918,2.308-2.432v-0.148h-0.407c-0.206,0.949-0.614,1.423-1.258,1.423
		c-0.729,0-0.875-0.503-0.875-1.423V13.101z M108.268,3.938v6.465c-1.313-1.156-2.365-1.69-3.826-1.69
		c-3.389,0-5.814,2.55-5.814,6.525c0,3.707,2.25,6.257,5.405,6.257c1.635,0,3.009-0.651,4.235-1.957
		c0,0.622,0.089,1.275,0.264,1.957c1.139-0.177,2.396-0.355,3.769-0.533v-0.534c-0.146,0-0.264,0.03-0.379,0.03
		c-1.111,0-1.49-0.653-1.49-2.225V0.645c-1.315,0.355-2.659,0.593-4.062,0.741v0.505h0.411
		C108.036,1.891,108.268,2.336,108.268,3.938 M108.239,11.352v7.325c-0.993,1.307-2.191,1.958-3.505,1.958
		c-2.132,0-3.651-1.869-3.651-5.309c0-3.797,1.666-5.872,3.826-5.872C106.048,9.454,107.217,10.076,108.239,11.352 M95.144,8.386
		c-1.345,0.356-2.718,0.593-4.119,0.741v0.535h0.438c1.228,0,1.433,0.385,1.433,2.017v6.673v0.919c0,0.743-0.584,1.245-1.638,1.245
		c-0.146,0-0.32,0-0.495-0.028v0.592h6.28v-0.592H96.75c-1.49,0-1.607-0.653-1.607-2.137V8.386z M93.917,2.193
		c-0.819,0-1.461,0.653-1.461,1.485c0,0.799,0.672,1.481,1.461,1.481s1.46-0.653,1.46-1.481C95.376,2.846,94.734,2.193,93.917,2.193
		 M87.552,8.712c-0.147,0.445-0.322,0.829-0.614,1.158c-0.876-0.801-1.723-1.128-2.833-1.128c-2.16,0-3.476,1.394-3.476,3.203
		c0,1.245,0.701,2.312,2.045,3.115c1.198,0.712,2.571,1.067,3.623,1.958c0.613,0.533,0.905,0.979,0.905,1.69
		c0,1.246-0.847,2.106-2.366,2.106c-1.898,0-3.096-1.097-3.681-3.352H80.54v4.033h0.614c0.118-0.475,0.293-0.889,0.585-1.246
		c1.021,0.921,1.958,1.276,3.213,1.276c2.395,0,3.855-1.483,3.855-3.825c0-1.484-0.875-2.64-2.599-3.53
		c-2.162-1.099-4.061-1.424-4.061-3.055c0-1.008,0.789-1.75,2.074-1.75c1.548,0,2.572,1.037,3.331,3.203h0.613V8.712H87.552z
		 M72.883,8.386c-1.198,0.386-2.483,0.623-3.827,0.741v0.535h0.438c1.227,0,1.431,0.385,1.431,2.017v6.673v0.919
		c0,0.713-0.526,1.245-1.49,1.245c-0.117,0-0.263,0-0.379-0.028v0.592h6.164v-0.592h-0.408c-1.52,0-1.667-0.653-1.667-2.137v-4.834
		c0-1.75,1.549-3.855,2.805-3.855c0.438,0,0.759,0.326,0.878,0.919c0.115,0.593,0.437,0.89,0.991,0.89
		c0.584,0,1.023-0.444,1.023-1.038c0-0.95-0.906-1.721-2.133-1.721c-1.402,0-2.833,1.009-3.593,2.817
		c0.029-0.325,0.058-0.652,0.058-0.978C73.174,9.78,73.059,9.069,72.883,8.386 M67.268,13.22v-0.059c0-2.729-1.899-4.42-4.586-4.42
		c-3.358,0-5.753,2.641-5.753,6.555c0,3.737,2.307,6.169,5.783,6.169c2.658,0,4.557-1.394,4.85-3.411h-0.673
		c-0.409,1.602-1.84,2.641-3.769,2.641c-2.804,0-3.768-1.75-3.768-5.309c0-0.682,0.029-1.394,0.059-2.166H67.268z M64.902,12.627
		h-5.434c0.233-2.194,1.198-3.262,3.009-3.262c1.518,0,2.454,0.859,2.454,2.372C64.932,11.886,64.932,12.183,64.902,12.627
		 M43.373,9.126v0.625c0.992,0.177,1.489,0.948,1.489,1.096c0,0.091,0.176,0.386,0.467,1.039l4.294,9.609h0.731l3.944-8.838
		c0.759-1.75,1.432-2.699,2.337-2.906V9.126h-3.768v0.625c0.964,0.147,1.314,0.443,1.314,1.187c0,0.236-0.116,0.651-0.321,1.157
		l-3.067,6.969l-3.242-7.444c-0.234-0.534-0.352-0.861-0.352-1.008c0-0.652,0.439-0.859,1.403-0.859V9.126H43.373z M41.202,8.386
		c-1.343,0.356-2.718,0.593-4.119,0.741v0.535h0.438c1.228,0,1.431,0.385,1.431,2.017v6.673v0.919c0,0.743-0.584,1.245-1.636,1.245
		c-0.146,0-0.32,0-0.496-0.028v0.592h6.281v-0.592H42.81c-1.491,0-1.607-0.653-1.607-2.137V8.386z M39.976,2.193
		c-0.819,0-1.461,0.653-1.461,1.485c0,0.799,0.672,1.481,1.461,1.481c0.789,0,1.461-0.653,1.461-1.481
		C41.437,2.846,40.793,2.193,39.976,2.193 M25.866,18.352V12.36c0-0.535,1.693-2.699,3.856-2.699c1.664,0,2.103,0.949,2.103,2.787
		v5.903c0,1.483-0.118,2.137-1.578,2.137h-0.292v0.592h5.93v-0.592h-0.292c-1.49,0-1.607-0.653-1.607-2.137v-5.695
		c0-2.61-1.168-3.944-3.505-3.944c-1.724,0-3.389,0.859-4.615,2.492c0-0.208,0.028-0.416,0.028-0.594
		c0-0.801-0.116-1.542-0.292-2.225c-1.228,0.386-2.455,0.623-3.769,0.741v0.535h0.438c1.227,0,1.431,0.385,1.431,2.017v6.673v0.919
		c0,0.713-0.525,1.245-1.489,1.245c-0.117,0-0.264,0-0.38-0.028v0.592h5.93v-0.592h-0.293
		C25.983,20.488,25.866,19.835,25.866,18.352 M1,1.386v0.713c2.804,0,2.98,0.651,2.98,2.812v10.246c0,4.027,2.833,6.337,7.654,6.337
		c5.141,0,7.799-2.459,7.799-7.255V4.911c0-1.658,1.023-2.665,2.776-2.812V1.386h-6.427v0.713c1.986,0,2.834,0.857,2.834,2.812
		v9.328c0,4.175-2.572,6.306-6.515,6.306c-1.841,0-3.33-0.681-4.118-1.51c-0.876-0.946-1.081-2.25-1.081-4.352V4.911
		c0-2.131,0.087-2.812,2.979-2.812V1.386H1z"/>
</g>
</svg>
